<?xml version="1.0" encoding="utf-8"?>
<!-- Generator: Adobe Illustrator 22.0.1, SVG Export Plug-In . SVG Version: 6.00 Build 0)  -->
<svg version="1.1" id="Layer_1" xmlns="http://www.w3.org/2000/svg" xmlns:xlink="http://www.w3.org/1999/xlink" x="0px" y="0px"
	 viewBox="0 0 69 68.9" style="enable-background:new 0 0 69 68.9;" xml:space="preserve">
<style type="text/css">
	.st0{fill:#FFFFFF;}
</style>
<g id="Layer_1_11_">
	<g>
		<path class="st0" d="M34.4,68.9c-5.8,0-11.6-1.4-16.8-4.4c-0.7-0.4-1-1.3-0.6-2c0.4-0.7,1.3-1,2-0.6c12.3,6.9,27.8,4.7,37.8-5.2
			c6-6,9.3-13.9,9.3-22.3s-3.3-16.3-9.3-22.3c-12.3-12.3-32.3-12.3-44.6,0c-6,6-9.3,13.9-9.3,22.4c0,8.4,3.3,16.3,9.3,22.2
			c0.6,0.6,0.6,1.5,0,2.1c-0.6,0.6-1.5,0.6-2.1,0C3.6,52.4,0,43.8,0,34.6c0-9.2,3.6-17.9,10.1-24.5c13.4-13.4,35.3-13.4,48.8,0
			s13.4,35.3,0,48.8C52.2,65.5,43.4,68.9,34.4,68.9z"/>
	</g>
</g>
<g>
	<path class="st0" d="M27,34l-9.4,2.8v11.7h34V36.7L42.2,34c-0.2,0.3-0.4,0.5-0.6,0.8c-1.9,2.1-4.4,3.3-7,3.3
		c-2.7,0-5.3-1.3-7.1-3.5C27.2,34.3,27.1,34.1,27,34z"/>
	<path class="st0" d="M34.6,36c2,0,3.9-0.9,5.5-2.6c1.4-1.6,1.6-3.9,1.6-7.2s-0.3-5.6-1.6-7.2c-1.5-1.6-3.5-2.6-5.5-2.6
		c-2.1,0-4.1,1-5.6,2.7c-1.4,1.6-1.6,4.3-1.6,7s0.1,5.3,1.6,7C30.5,35,32.5,36,34.6,36z"/>
</g>
</svg>
