<?xml version="1.0" encoding="utf-8"?>
<!-- Generator: Adobe Illustrator 22.0.1, SVG Export Plug-In . SVG Version: 6.00 Build 0)  -->
<svg version="1.1" id="Layer_1" xmlns="http://www.w3.org/2000/svg" xmlns:xlink="http://www.w3.org/1999/xlink" x="0px" y="0px"
	 viewBox="0 0 116.1 40.4" style="enable-background:new 0 0 116.1 40.4;" xml:space="preserve">
<style type="text/css">
	.st0{fill:#FFFFFF;}
</style>
<path class="st0" d="M96,0.1c-4.8,0-9.2,1.7-12.6,4.5c-3.4-2.8-7.8-4.5-12.6-4.5c-4.8,0-9.2,1.7-12.6,4.5c-3.4-2.8-7.8-4.5-12.6-4.5
	c-4.8,0-9.2,1.7-12.6,4.5C29.4,1.8,25,0.1,20.2,0.1c-11.1,0-20,9-20,20c0,11.1,9,20,20,20c4.8,0,9.2-1.7,12.6-4.5
	c3.4,2.8,7.8,4.5,12.6,4.5c4.8,0,9.2-1.7,12.6-4.5c3.4,2.8,7.8,4.5,12.6,4.5c4.8,0,9.2-1.7,12.6-4.5c3.4,2.8,7.8,4.5,12.6,4.5
	c11.1,0,20-9,20-20C116,9.1,107.1,0.1,96,0.1z M83.4,28.8c-1.7-2.5-2.7-5.4-2.7-8.6s1-6.2,2.7-8.6C85,14,86,17,86,20.2
	S85,26.3,83.4,28.8z M58.1,28.8c-1.7-2.5-2.7-5.4-2.7-8.6c0-3.2,1-6.2,2.7-8.6c1.7,2.5,2.7,5.4,2.7,8.6
	C60.8,23.4,59.8,26.3,58.1,28.8z M32.8,28.8c-1.7-2.5-2.7-5.4-2.7-8.6c0-3.2,1-6.2,2.7-8.6c1.7,2.5,2.7,5.4,2.7,8.6
	C35.5,23.4,34.5,26.3,32.8,28.8z M4.9,20.2c0-8.4,6.8-15.3,15.3-15.3c3.5,0,6.7,1.2,9.3,3.2c-2.6,3.4-4.1,7.6-4.1,12.1
	c0,4.6,1.5,8.7,4.1,12.1c-2.6,2-5.8,3.2-9.3,3.2C11.8,35.5,4.9,28.6,4.9,20.2z M36.2,32.3c2.6-3.4,4.1-7.6,4.1-12.1
	c0-4.6-1.5-8.7-4.1-12.1c2.6-2,5.8-3.2,9.3-3.2c3.5,0,6.7,1.2,9.3,3.2c-2.6,3.4-4.1,7.6-4.1,12.1c0,4.6,1.5,8.8,4.1,12.1
	c-2.6,2-5.8,3.2-9.3,3.2C42,35.5,38.7,34.3,36.2,32.3z M61.4,32.3c2.6-3.4,4.1-7.6,4.1-12.1c0-4.6-1.5-8.8-4.1-12.1
	c2.6-2,5.8-3.2,9.3-3.2c3.5,0,6.7,1.2,9.3,3.2c-2.6,3.4-4.1,7.6-4.1,12.1c0,4.6,1.5,8.7,4.1,12.1c-2.6,2-5.8,3.2-9.3,3.2
	C67.2,35.5,64,34.3,61.4,32.3z M96,35.5c-3.5,0-6.7-1.2-9.3-3.2c2.6-3.4,4.1-7.6,4.1-12.1c0-4.6-1.5-8.7-4.1-12.1
	c2.6-2,5.8-3.2,9.3-3.2c8.4,0,15.3,6.8,15.3,15.3C111.3,28.6,104.4,35.5,96,35.5z"/>
</svg>
