<?xml version="1.0" encoding="utf-8"?>
<!-- Generator: Adobe Illustrator 22.0.1, SVG Export Plug-In . SVG Version: 6.00 Build 0)  -->
<svg version="1.1" id="Layer_1" xmlns="http://www.w3.org/2000/svg" xmlns:xlink="http://www.w3.org/1999/xlink" x="0px" y="0px"
	 viewBox="0 0 69 68.9" style="enable-background:new 0 0 69 68.9;" xml:space="preserve">
<style type="text/css">
	.st0{fill:#FFFFFF;}
</style>
<g>
	<path class="st0" d="M58.9,10.1c-13.4-13.4-35.3-13.4-48.8,0C3.6,16.6,0,25.3,0,34.6c0,9.2,3.6,17.8,10.1,24.3
		c0.6,0.6,1.5,0.6,2.1,0s0.6-1.5,0-2.1c-6-6-9.2-13.8-9.3-22.2c0-8.5,3.3-16.4,9.3-22.4c12.3-12.3,32.3-12.3,44.6,0
		c6,6,9.3,13.9,9.3,22.3s-3.3,16.3-9.3,22.3C46.8,66.7,31.3,68.9,19,62c-0.7-0.4-1.6-0.1-2,0.6c-0.4,0.7-0.1,1.6,0.6,2
		c5.3,2.9,11,4.4,16.8,4.4c9,0,17.9-3.5,24.5-10.1C72.3,45.4,72.3,23.5,58.9,10.1z"/>
	<path class="st0" d="M23.7,30.8c0,2.5,0,5,0,7.4v3c0,0.1,0,0.1,0,0.2v0.1c0,0.3,0.2,0.5,0.5,0.5l0,0c0.3,0,0.5-0.2,0.5-0.5v-3.3
		c0-2.5,0-4.9,0-7.4c0-2.3,0.6-4.4,1.8-6.2l0,0l1.2,1.1c0.1,0.1,0.2,0.1,0.3,0.1c0.1,0,0.3-0.1,0.4-0.2c1.7-1.8,3.8-2.7,6.2-2.7
		c2.4,0,4.5,0.9,6.3,2.7c0.2,0.2,0.5,0.2,0.7,0l1-0.9c1.1,1.8,1.7,3.8,1.7,6.1c0,2.4,0,4.9,0,7.3v3.2v0.2c0,0.3,0.2,0.5,0.5,0.5l0,0
		c0.3,0,0.5-0.2,0.5-0.5c0-0.1,0-0.2,0-0.2v-3.2c0-2.4,0-4.9,0-7.3c0-2.5-0.7-4.8-2-6.7l0.9-0.8c0.2-0.2,0.2-0.5,0-0.7
		c-2.4-2.7-5.9-4.2-9.6-4.2l0,0c-3.7,0-7.2,1.6-9.5,4.2c-0.2,0.2-0.2,0.5,0,0.7l0.6,0.6L25.6,24C24.4,26,23.7,28.2,23.7,30.8z"/>
	<path class="st0" d="M47.8,42h0.3c0.2,0,0.4-0.1,0.7-0.1c1.9-0.4,3.1-2,3.1-4.1c0-1.5,0-3,0-4.5c0-0.3,0-0.6-0.1-0.8
		c-0.3-2-2.1-3.5-4.1-3.3c-0.3,0-0.5,0.2-0.5,0.5v11.8c0,0.1,0.1,0.3,0.2,0.4C47.5,42,47.6,42,47.8,42C47.7,42,47.7,42,47.8,42z"/>
	<path class="st0" d="M21.6,41.9c0.1-0.1,0.2-0.2,0.2-0.4V29.7c0-0.3-0.2-0.5-0.5-0.5c-2-0.1-3.8,1.3-4.1,3.3c0,0.3-0.1,0.6-0.1,0.8
		c0,1.5,0,3,0,4.5c0,2.1,1.2,3.6,3.1,4.1h0.1v3.9c0.2,1.9,1.9,3.4,3.9,3.5c0.6,0,1.1,0,1.7,0c0.5,0,0.9,0,1.4,0h1.1v0.2
		c0,0.2,0.1,0.4,0.3,0.6c0.5,0.5,1.5,0.5,1.7,0.5h1.3h1.6c1.4,0,2.5-1.1,2.5-2.4c0-1.4-1-2.5-2.3-2.6c-1.1,0-2.1,0-3.1,0
		c-0.7,0-1.3,0.4-1.7,0.9c-0.4,0.5-0.6,1.1-0.5,1.7h-0.9c-1,0-2,0-3.1,0c-1.5,0-2.8-1.2-2.9-2.5V42C21.4,42,21.5,42,21.6,41.9z"/>
</g>
</svg>
