<?xml version="1.0" encoding="utf-8"?>
<!-- Generator: Adobe Illustrator 22.0.1, SVG Export Plug-In . SVG Version: 6.00 Build 0)  -->
<svg version="1.1" id="Layer_1" xmlns="http://www.w3.org/2000/svg" xmlns:xlink="http://www.w3.org/1999/xlink" x="0px" y="0px"
	 viewBox="0 0 69 68.9" style="enable-background:new 0 0 69 68.9;" xml:space="preserve">
<style type="text/css">
	.st0{fill:#FFFFFF;}
</style>
<g>
	<path class="st0" d="M58.9,10.1c-13.4-13.4-35.3-13.4-48.8,0C3.6,16.6,0,25.3,0,34.6c0,9.2,3.6,17.8,10.1,24.3
		c0.6,0.6,1.5,0.6,2.1,0c0.6-0.6,0.6-1.5,0-2.1C6.2,50.8,3,43,2.9,34.6c0-8.5,3.3-16.4,9.3-22.4c12.3-12.3,32.3-12.3,44.6,0
		c6,6,9.3,13.9,9.3,22.3c0,8.4-3.3,16.3-9.3,22.3C46.8,66.7,31.3,68.9,19,62c-0.7-0.4-1.6-0.1-2,0.6c-0.4,0.7-0.1,1.6,0.6,2
		c5.3,2.9,11,4.4,16.8,4.4c9,0,17.9-3.5,24.5-10.1C72.3,45.4,72.3,23.5,58.9,10.1z"/>
	<path class="st0" d="M30.2,42.8c0,2.3,1.9,4.3,4.2,4.3c2.3,0,4.3-1.9,4.3-4.3c0-2.3-1.9-4.2-4.3-4.2C32.1,38.5,30.2,40.4,30.2,42.8
		z"/>
	<path class="st0" d="M47.7,33.7l3.4-3.4c0,0,0,0,0,0c-3.8-5.1-9.8-8.4-16.7-8.4c-6.7,0-12.7,3.2-16.5,8.2l3.3,3.5
		c3-3.9,7.8-6.4,13.2-6.4C39.9,27.2,44.7,29.8,47.7,33.7z"/>
	<path class="st0" d="M42.1,39.2C42.1,39.2,42.2,39.2,42.1,39.2C42.2,39.2,42.2,39.2,42.1,39.2l3.3-3.2c0-0.1-0.1-0.1-0.1-0.2
		c-2.4-2.9-6.4-4.9-10.9-4.9c-4.5,0-8.5,1.9-10.9,4.9c0,0,0,0.1-0.1,0.1l3.1,3.3c0,0,0,0,0,0c0,0,0,0,0,0c1.3-1.6,4.2-3.5,7.7-3.5
		C38,35.7,40.9,37.6,42.1,39.2z"/>
</g>
</svg>
