<?xml version="1.0" encoding="utf-8"?>
<!-- Generator: Adobe Illustrator 22.0.1, SVG Export Plug-In . SVG Version: 6.00 Build 0)  -->
<svg version="1.1" id="Layer_1" xmlns="http://www.w3.org/2000/svg" xmlns:xlink="http://www.w3.org/1999/xlink" x="0px" y="0px"
	 viewBox="0 0 36.9 36.8" style="enable-background:new 0 0 36.9 36.8;" xml:space="preserve">
<style type="text/css">
	.st0{fill:#FFFFFF;}
</style>
<g>
	<path class="st0" d="M20.9,11.8h1.7V8.5h-2.7c-3.2,0-3.9,1.7-3.9,4.4v2h-2.4v3.3H16v9.6h3.6v-9.7h2.6l0.4-3.3h-3v-1.7
		C19.6,12.3,19.7,11.8,20.9,11.8z"/>
	<path class="st0" d="M31.4,5.4c-7.1-7.2-18.8-7.2-26,0C1.9,8.9,0,13.6,0,18.5s1.9,9.5,5.5,13c0.3,0.3,0.8,0.3,1.1,0
		c0.3-0.3,0.3-0.8,0-1.1C3.5,27.2,1.7,23,1.7,18.5c-0.1-4.6,1.7-8.8,4.9-12c6.5-6.6,17.2-6.6,23.8,0c3.1,3.2,4.9,7.4,4.9,11.9
		s-1.7,8.7-4.9,11.9c-5.3,5.3-13.6,6.5-20.2,2.8c-0.4-0.2-0.9-0.1-1.1,0.3c-0.2,0.4-0.1,0.9,0.3,1.1c2.8,1.5,5.9,2.3,9,2.3
		c4.8,0,9.5-1.8,13-5.4C38.6,24.3,38.5,12.6,31.4,5.4z"/>
</g>
</svg>
