<?xml version="1.0" encoding="utf-8"?>
<!-- Generator: Adobe Illustrator 22.0.1, SVG Export Plug-In . SVG Version: 6.00 Build 0)  -->
<svg version="1.1" id="Layer_1" xmlns="http://www.w3.org/2000/svg" xmlns:xlink="http://www.w3.org/1999/xlink" x="0px" y="0px"
	 viewBox="0 0 69 68.9" style="enable-background:new 0 0 69 68.9;" xml:space="preserve">
<style type="text/css">
	.st0{display:none;}
	.st1{fill:#FFFFFF;}
</style>
<g id="Background" class="st0">
</g>
<g>
	<path class="st1" d="M27.4,53.3c3.9,0,7.2-2.2,8.1-5.1c9.1-0.2,16.4-7,16.4-15.4c0-8.5-7.5-15.4-16.8-15.4s-16.8,6.9-16.8,15.4
		c0,5.9,3.7,11.1,9,13.7l-2.1,6.6C25.9,53.2,26.6,53.3,27.4,53.3z"/>
	<path class="st1" d="M58.9,10.1c-13.4-13.4-35.3-13.4-48.8,0C3.6,16.6,0,25.3,0,34.6c0,9.2,3.6,17.8,10.1,24.3
		c0.6,0.6,1.5,0.6,2.1,0s0.6-1.5,0-2.1c-6-6-9.2-13.8-9.3-22.2c0-8.5,3.3-16.4,9.3-22.4c12.3-12.3,32.3-12.3,44.6,0
		c6,6,9.3,13.9,9.3,22.3s-3.3,16.3-9.3,22.3C46.8,66.7,31.3,68.9,19,62c-0.7-0.4-1.6-0.1-2,0.6c-0.4,0.7-0.1,1.6,0.6,2
		c5.3,2.9,11,4.4,16.8,4.4c9,0,17.9-3.5,24.5-10.1C72.3,45.4,72.3,23.5,58.9,10.1z"/>
</g>
</svg>
