<?xml version="1.0" encoding="utf-8"?>
<!-- Generator: Adobe Illustrator 22.0.1, SVG Export Plug-In . SVG Version: 6.00 Build 0)  -->
<svg version="1.1" id="Layer_1" xmlns="http://www.w3.org/2000/svg" xmlns:xlink="http://www.w3.org/1999/xlink" x="0px" y="0px"
	 viewBox="0 0 36.7 36.6" style="enable-background:new 0 0 36.7 36.6;" xml:space="preserve">
<style type="text/css">
	.st0{fill:#D52F87;}
	.st1{fill:#FFFFFF;}
</style>
<g>
	<path class="st0" d="M27.5,13.1C26.9,11,25.2,9.6,23,9.5c-0.2,0-0.4-0.1-0.6-0.1c-2.4,0-4.7,0-7.1,0c-0.5,0.1-1,0.1-1.4,0.2
		c-2.2,0.5-3.7,2.2-3.8,4.5c0,0.2-0.1,0.4-0.1,0.6c0,2.4,0,4.7,0,7.1c0.1,0.5,0.1,0.9,0.2,1.4c0.4,2.1,2.2,3.6,4.5,3.7
		c0.2,0,0.5,0.1,0.7,0.1c2.3,0,4.6,0,6.8,0c0.6-0.1,1.1-0.1,1.7-0.2c2.2-0.5,3.6-2.2,3.7-4.5c0-0.3,0.1-0.5,0.1-0.8
		c0-2.3,0-4.6,0-6.8C27.6,14.2,27.6,13.6,27.5,13.1z M26.1,22.1c0,0.8-0.2,1.6-0.8,2.2c-0.7,0.8-1.5,1.1-2.5,1.1c-1.3,0-2.6,0-3.9,0
		c-1.3,0-2.5,0-3.8,0C13,25.2,11.8,24,11.7,22c-0.1-2.6-0.1-5.2,0-7.7c0-1.7,1-2.8,2.5-3.1c0.6-0.1,1.3-0.2,2-0.2
		c2.2,0,4.3,0,6.5,0.1c2.1,0.1,3.3,1.3,3.4,3.4C26.1,17,26.1,19.6,26.1,22.1z"/>
	<path class="st0" d="M18.9,13.5c-2.5,0-4.6,2-4.6,4.5c0,2.6,2,4.6,4.5,4.6s4.5-2,4.6-4.5C23.4,15.6,21.4,13.5,18.9,13.5z M18.8,21
		c-1.6,0-2.9-1.3-2.9-3c0-1.6,1.3-2.9,3-2.8c1.6,0,2.9,1.3,2.9,2.9C21.8,19.7,20.5,21,18.8,21z"/>
	<path class="st0" d="M23.5,12.4c-0.6,0-1.1,0.5-1.1,1.1c0.1,0.6,0.6,1,1.2,1c0.6,0,1-0.5,1-1.1S24.1,12.4,23.5,12.4z"/>
</g>
<path class="st1" d="M31.3,5.4c-7.1-7.1-18.8-7.1-25.9,0C1.9,8.8,0,13.5,0,18.4s1.9,9.5,5.4,12.9c0.3,0.3,0.8,0.3,1.1,0
	c0.3-0.3,0.3-0.8,0-1.1C3.3,27,1.6,22.8,1.6,18.4c0-4.5,1.7-8.7,4.9-11.9C13,0,23.7,0,30.2,6.5c3.2,3.2,4.9,7.4,4.9,11.9
	s-1.7,8.7-4.9,11.9c-5.3,5.3-13.5,6.4-20.1,2.8C9.7,32.9,9.2,33,9,33.4c-0.2,0.4-0.1,0.9,0.3,1.1c2.8,1.6,5.9,2.3,8.9,2.3
	c4.8,0,9.5-1.8,13-5.4C38.4,24.1,38.4,12.5,31.3,5.4z"/>
</svg>
