<?xml version="1.0" encoding="utf-8"?>
<!-- Generator: Adobe Illustrator 22.0.1, SVG Export Plug-In . SVG Version: 6.00 Build 0)  -->
<svg version="1.1" id="Layer_1" xmlns="http://www.w3.org/2000/svg" xmlns:xlink="http://www.w3.org/1999/xlink" x="0px" y="0px"
	 viewBox="0 0 69 68.9" style="enable-background:new 0 0 69 68.9;" xml:space="preserve">
<style type="text/css">
	.st0{fill:#010101;}
</style>
<g>
	<path class="st0" d="M58.9,10.1c-13.4-13.4-35.3-13.4-48.8,0C3.6,16.6,0,25.3,0,34.6c0,9.2,3.6,17.8,10.1,24.3
		c0.6,0.6,1.5,0.6,2.1,0c0.6-0.6,0.6-1.5,0-2.1C6.2,50.8,3,43,2.9,34.6c0-8.5,3.3-16.4,9.3-22.4c12.3-12.3,32.3-12.3,44.6,0
		c6,6,9.3,13.9,9.3,22.3c0,8.4-3.3,16.3-9.3,22.3C46.8,66.7,31.3,68.9,19,62c-0.7-0.4-1.6-0.1-2,0.6c-0.4,0.7-0.1,1.6,0.6,2
		c5.3,2.9,11,4.4,16.8,4.4c9,0,17.9-3.5,24.5-10.1C72.3,45.4,72.3,23.5,58.9,10.1z"/>
	<path class="st0" d="M37.2,52.3c3.6,0,6.5-2.9,6.5-6.5V32.6c0-3.6-0.4-15.9-7.1-16h-4.2c-6.1,0-7.1,12.4-7.1,16v13.2
		c0,3.6,2.9,6.5,6.5,6.5H37.2z M32.4,20.4h4.1c2.3,0,3.2,3.1,3.5,5.9H28.9C29.2,23.5,30.1,20.4,32.4,20.4z M28.8,27.2h11.3
		c0.2,1.8,0.1,4.6,0.1,4.6H28.7C28.7,31.8,28.6,29,28.8,27.2z M28.6,50.2c-0.4,0.2-1.1-0.4-1.6-1.4c-0.5-1-0.7-1.9-0.4-2.1
		c0.4-0.2,1.1,0.4,1.6,1.4C28.8,49.1,29,50,28.6,50.2z M28.7,36.7v-4.1h11.5v4.1c0,1.2-1,2.1-2.1,2.1h-7.3
		C29.6,38.8,28.7,37.9,28.7,36.7z"/>
</g>
</svg>
