<?xml version="1.0" encoding="utf-8"?>
<!-- Generator: Adobe Illustrator 22.0.1, SVG Export Plug-In . SVG Version: 6.00 Build 0)  -->
<svg version="1.1" id="Layer_1" xmlns="http://www.w3.org/2000/svg" xmlns:xlink="http://www.w3.org/1999/xlink" x="0px" y="0px"
	 viewBox="0 0 69 68.9" style="enable-background:new 0 0 69 68.9;" xml:space="preserve">
<g id="Layer_1_20_">
	<g>
		<path d="M34.4,68.9c-5.8,0-11.6-1.4-16.8-4.4c-0.7-0.4-1-1.3-0.6-2c0.4-0.7,1.3-1,2-0.6c12.3,6.9,27.8,4.7,37.8-5.2
			c6-6,9.3-13.9,9.3-22.3s-3.3-16.3-9.3-22.3c-12.3-12.3-32.3-12.3-44.6,0c-6,6-9.3,13.9-9.3,22.4c0,8.4,3.3,16.3,9.3,22.2
			c0.6,0.6,0.6,1.5,0,2.1c-0.6,0.6-1.5,0.6-2.1,0C3.6,52.4,0,43.8,0,34.6c0-9.2,3.6-17.9,10.1-24.5c13.4-13.4,35.3-13.4,48.8,0
			s13.4,35.3,0,48.8C52.2,65.5,43.4,68.9,34.4,68.9z"/>
	</g>
</g>
<path d="M48.4,31c-1.7-6.3-7.5-11-14.3-11c1.2,1.7,3.1,3.8,5.1,4.8c0.2,0.1,0.3,0.4,0.2,0.6c-0.1,0.1-0.2,0.2-0.4,0.2
	c-0.1,0-0.1,0-0.2-0.1c-2.2-1.3-4.5-3.8-5.7-5.6c-1.9,0.1-3.6,0.6-5.2,1.3c0,0,0.1,0.1,0.1,0.1c0,0.1,1.9,5.1,7.7,7.1
	c0.2,0.1,0.4,0.3,0.3,0.6c-0.1,0.2-0.2,0.3-0.4,0.3c0,0-0.1,0-0.1,0c-6.2-2.1-8.1-7.4-8.2-7.6c0,0,0-0.1,0-0.1
	c-3.7,1.9-6.5,5.3-7.6,9.4c-2.2,0.1-3.9,1.9-3.9,4c0,2.2,1.8,4,4,4c1.8,6.3,7.6,10.9,14.4,10.9c6.9,0,12.6-4.6,14.4-10.9
	c2.2-0.1,4-1.9,4-4C52.3,32.8,50.6,31.1,48.4,31z M27.7,35.2c-1.3,0-2.4,1.1-2.4,2.4c0,0.2-0.2,0.4-0.4,0.4s-0.4-0.2-0.4-0.4
	c0-1.8,1.5-3.3,3.3-3.3c1.8,0,3.3,1.5,3.3,3.3c0,0.2-0.2,0.4-0.4,0.4s-0.4-0.2-0.4-0.4C30.1,36.3,29.1,35.2,27.7,35.2z M38.3,42.7
	c0,0.1-0.6,2.1-4.3,2.1c-3.6,0-4.5-2.1-4.5-2.2c-0.1-0.2,0-0.5,0.3-0.6c0.2-0.1,0.5,0,0.6,0.2c0,0.1,0.7,1.6,3.7,1.6
	c2.9,0,3.4-1.4,3.4-1.4c0.1-0.2,0.3-0.4,0.5-0.3C38.3,42.2,38.4,42.4,38.3,42.7z M42.8,37.7c-0.2,0-0.4-0.2-0.4-0.4
	c0-1.3-1.1-2.4-2.4-2.4c-1.3,0-2.4,1.1-2.4,2.4c0,0.2-0.2,0.4-0.4,0.4s-0.4-0.2-0.4-0.4c0-1.8,1.5-3.3,3.3-3.3
	c1.8,0,3.3,1.5,3.3,3.3C43.2,37.5,43,37.7,42.8,37.7z"/>
</svg>
