<?xml version="1.0" encoding="utf-8"?>
<!-- Generator: Adobe Illustrator 22.0.1, SVG Export Plug-In . SVG Version: 6.00 Build 0)  -->
<svg version="1.1" id="Layer_1" xmlns="http://www.w3.org/2000/svg" xmlns:xlink="http://www.w3.org/1999/xlink" x="0px" y="0px"
	 viewBox="0 0 68.9 68.9" style="enable-background:new 0 0 68.9 68.9;" xml:space="preserve">
<style type="text/css">
	.st0{fill:#FFFFFF;}
</style>
<g>
	<path class="st0" d="M34.4,68.9c-5.8,0-11.6-1.4-16.8-4.4c-0.7-0.4-1-1.3-0.6-2s1.3-1,2-0.6c12.3,6.9,27.8,4.7,37.8-5.2
		c6-6,9.3-13.9,9.3-22.3s-3.3-16.3-9.3-22.3c-12.3-12.3-32.3-12.3-44.6,0c-6,6-9.3,13.9-9.3,22.4c0,8.4,3.3,16.3,9.3,22.2
		c0.6,0.6,0.6,1.5,0,2.1s-1.5,0.6-2.1,0C3.6,52.3,0,43.7,0,34.5C0,25.3,3.6,16.7,10.1,10C23.5-3.3,45.4-3.3,58.9,10
		c13.4,13.4,13.4,35.3,0,48.8C52.2,65.4,43.3,68.9,34.4,68.9z"/>
</g>
<path class="st0" d="M48.4,30.3c0-7.7-6.2-13.9-13.9-13.9c-7.7,0-13.9,6.2-13.9,13.9c0,1,0.1,2,0.3,3l0,0
	c1.7,7.6,6.1,14.2,12.2,18.6c0.4,0.3,0.9,0.5,1.4,0.5c0.4,0,0.8-0.1,1.2-0.3c0.2-0.1,0.3-0.2,0.5-0.3c5.9-4.4,10.2-10.9,11.9-18.3
	l0,0C48.2,32.4,48.4,31.4,48.4,30.3z M34.4,34.9c-3.3,0-5.9-2.6-5.9-5.9s2.6-5.9,5.9-5.9s5.9,2.6,5.9,5.9S37.7,34.9,34.4,34.9z"/>
</svg>
