<?xml version="1.0" encoding="utf-8"?>
<!-- Generator: Adobe Illustrator 22.0.1, SVG Export Plug-In . SVG Version: 6.00 Build 0)  -->
<svg version="1.1" id="Layer_1" xmlns="http://www.w3.org/2000/svg" xmlns:xlink="http://www.w3.org/1999/xlink" x="0px" y="0px"
	 viewBox="0 0 384.8 201.5" style="enable-background:new 0 0 384.8 201.5;" xml:space="preserve">
<style type="text/css">
	.st0{fill:#FFFFFF;}
</style>
<g id="Layer_1_1_">
	<g>
		<path class="st0" d="M76.1,57.6c-0.6-0.6-1-0.6-1.5,0.2c-5.7,8.9-13.3,16.7-19,26c2-7.3,3.9-13.4,5.5-18.4
			c1.4-4.1,0.8-5.9-1.3-7.7c-0.7-0.6-1.2-0.4-1.7,0.3c-5.6,7.7-14.1,21.6-16,26.5c-1.2,3.1-0.6,4.9,0.1,5.7c0.4,0.4,0.7,0.4,0.9-0.1
			c3.1-7,8.9-16.3,13.5-23.3c-2.3,6.9-4,14.1-4.5,17.1c-0.5,3.2,0.3,5.1,2,6.3c0.4,0.3,0.7,0.2,0.9-0.4c3.8-7,9.8-15,15.7-22.1
			c-3.4,6.5-6.7,13.8-7.5,16.9c-0.9,3.4-0.3,5,0.6,5.7c0.4,0.4,0.6,0.4,0.8-0.2c2.6-7.5,7.8-18,11.5-24.8
			C77.6,62.6,78.1,59.8,76.1,57.6z"/>
		<path class="st0" d="M123.8,69c0.7-0.7,1-2.1,0.4-3.5c-0.7-1.4-2.2-2-3-1.1s-1.1,2.4-0.3,3.9C121.7,69.6,123.2,69.7,123.8,69z"/>
		<path class="st0" d="M164.3,81.6c-2.1,2.8-5,5.6-9.3,7.8c2.2-5.1,5.5-11.4,7-14.5c1.3-2.6,0.9-4.8,0.1-5.7
			c-0.4-0.5-0.9-0.4-1.3,0.3c-0.5,0.9-1.1,1.8-1.7,2.9c0.1-1.8-1-3.4-3.1-3.4c-2.7,0-6.9,2.3-10.9,8.4c-1.2,1.7-1.9,3.5-2.3,5.1
			c-1.9,3.3-4.2,6.2-6.2,6.3c-1.9,0.1-2.2-2.3-0.8-5.4c1.2-2.7,3.8-6.6,4.8-8.9c1.3-2.7-0.3-5.3-2-5.5c-1.7-0.3-5.3,2.6-7.6,5.1
			c0.6-1.9,0.6-3.6-0.2-5c-0.3-0.5-0.7-0.6-1.1,0c-3.3,4.8-7.3,12.1-8.3,15.4v0.1c-1.5,2.3-3.4,4-5.1,4c-1.7,0.1-1.8-1.9-0.5-5
			c1.1-2.6,3.3-6.1,4.4-8.4c1.3-2.6,0.8-4.8,0.1-5.7c-0.4-0.5-0.8-0.3-1.3,0.3c-1.9,2.7-5.4,8.9-6.7,12.7c-0.2,0.5-0.3,0.9-0.4,1.4
			c-1.6,2.5-3.6,4.6-5.1,4.5c-2-0.2-3.4-3.2-3.6-7.5c3.3-1,5.5-2.5,7.2-4.2c1.9-1.9,2.1-4.1,1.1-6.1c-1-2.2-2.3-3-4.3-2.3
			c-1.4,0.5-3,1.4-4.6,3c1.4-2.6,3.4-6.2,4.7-8.3c2.2-3.8,2.3-5.9,1.5-7.5c-0.3-0.6-0.8-0.6-1.3,0.1c-4.8,6.3-13.4,23.4-14.9,28.2
			c0,0.1-0.1,0.2-0.1,0.3c-1.7,2.6-3.8,4.7-5.4,4.8c-1.8,0.1-1.7-2.1-0.4-5.1c1.3-2.8,3.9-6.7,5-9c1.3-2.6,0.8-4.8,0.1-5.8
			c-0.4-0.5-0.8-0.4-1.3,0.3c-0.6,0.8-1.2,1.9-1.9,3.2c0.1-2-0.9-3.8-3.2-3.8c-2.6,0-6.7,2.3-10.9,8.5c-4.3,6.3-3.3,12.9,1.5,12.9
			c2.5,0,4.8-1.9,6.5-4.1c0,2.4,1.5,4.1,4.3,4.3c1.8,0.1,3.7-0.9,5.2-2.4c0.1,0.7,0.3,1.2,0.6,1.6c0.4,0.4,0.8,0.3,0.9-0.1
			c4-9.6,6.4-14.2,10.3-17.1c2.8-2.1,5.1-2.7,5.6-1.8c0.8,1.4-2.7,5.9-9.1,8c-1,0.3-1.1,0.5-1.1,1.4c-0.1,7,3,10,6.6,10.1
			c2.5,0,4.4-1.2,5.8-2.7c0.4,1.8,1.7,2.9,4,2.9c1.8,0,3.7-0.8,5.2-2.2c0.1,0.8,0.4,1.4,0.9,1.8c0.5,0.5,0.8,0.3,1-0.2
			c2.2-4.9,4.5-9.9,7.6-13.2c3.3-3.6,6.4-5.1,6.9-4.9c0.9,0.4-3.6,5.9-5.4,11c-1.5,4.5-0.5,7.8,4,7.8c2.4,0,4.9-1.7,6.6-3.8
			c0.4,2.1,1.8,3.5,4,3.5c1.9,0,3.8-1.1,5.3-2.6c-0.5,1.2-1,2.4-1.5,3.6c-5.2,2-9.6,5.2-11.2,9.8c-1,3.1-0.1,4.9,1,6.5
			c0.9,1.4,2,1.5,3,1.1c4.2-1.7,7.9-10,10.8-16.9c4.3-1.6,8.1-3.6,10.1-6.8c0.9-1.4,1.1-2.6,1-3C165.1,81.2,164.6,81.2,164.3,81.6z
			 M76.6,88.4c-2-0.1-1.4-4.6,1.4-9.1c2.9-4.6,6.7-8,8.3-7.9c1.5,0.2,1,3.4-2.2,9.1C81.5,85.1,78.8,88.5,76.6,88.4z M141.3,105.6
			c-0.9-1.3,1.4-8.4,8.2-12.4C146,101.1,141.9,106.6,141.3,105.6z M147.2,88.5c-2.1-0.1-1.5-4.6,1.3-9.1c2.9-4.5,6.7-7.9,8.3-7.8
			c1.5,0.1,1,3.3-2.2,9.1C151.9,85.2,149.2,88.5,147.2,88.5z"/>
		<path class="st0" d="M186.5,64.4c-0.8,0.9-1.1,2.4-0.3,3.9c0.8,1.4,2.2,1.5,2.9,0.8s1-2.1,0.4-3.5
			C188.9,64.1,187.4,63.5,186.5,64.4z"/>
		<path class="st0" d="M200.5,66c1.3-2.7,1.3-4.4,0.7-5.9c-0.3-0.6-0.8-0.7-1.3,0c-0.9,1.1-2.3,3.6-4,6.5c-1.4,0.2-2.9,0.3-4.3,0.2
			c-0.8-0.1-1.1,0.3-0.6,1c0.4,0.6,1.6,1.4,3.4,1.4c-2.2,4.1-4.4,8.5-5.5,11.1c-0.2,0.4-0.3,0.7-0.4,1.1c-0.1,0.1-0.1,0.1-0.2,0.2
			c-1.6,3.6-4.4,7-6.8,7.1c-1.7,0.1-1.8-1.9-0.5-5c1.1-2.6,3.3-6.1,4.4-8.4c1.3-2.6,0.8-4.8,0.1-5.7c-0.4-0.5-0.8-0.3-1.3,0.3
			c-1.9,2.7-5.4,8.9-6.7,12.7c-1.5,4.3-0.5,7.6,3.5,7.6c2.5,0,5.3-1.6,7-4.2c0.5,2.6,2.4,4.1,4.5,4.2c4.2,0.2,7.6-4.4,8.3-5.9
			c0.5-1.2,0.8-2.1,0.5-3c-0.2-0.7-0.8-0.6-1.1,0c-1.9,3.9-4.9,7.6-7.2,7.5c-2.2-0.1-2.8-3.3-1-7.1c2-4.4,5-9.4,7-12.9
			c1.3-0.2,2.9-0.4,4.1-0.2c0.8,0,1-0.4,0.6-1C203.3,66.9,202.5,65.9,200.5,66z"/>
		<path class="st0" d="M230.9,87.9c2.3-2.7,2.6-5.1,0.6-6.5c-2.9-2.1-9.6-4.8-9.4-8.2c0.3-6.5,13.1-14.5,14.9-12.7
			c1.2,1.3-2.7,5.6-3.8,8.1c-1.1,2.4-0.5,4.1,0.5,5.1c0.6,0.6,0.9,0.3,1.1-0.2c0.7-1.3,2.2-4,3.6-5.8c0.8-1.1,2-3.1,1.5-5.2
			c-0.4-1.5-1.3-3.2-2.6-4.4c-1.7-1.6-4.2-1.1-6.7-0.1c-4.6,2-12.7,8.1-12.7,15.2c0,5.4,8.2,8.6,11,10.9c0.7,0.6,1,1.7,0.1,2.7
			c-0.7,0.6-1.8,0.9-3.2,0.9c-3.4,0-6.9-2.7-9-4.4c-1.4-1.1-3.5-1.6-5.3-1.1c-0.5,0.2-0.7,0.5-0.1,1.2
			C218.7,92.5,227.8,91.5,230.9,87.9z"/>
		<path class="st0" d="M301.2,69c0.7-0.7,1-2.1,0.4-3.5c-0.7-1.4-2.2-2-3-1.1s-1.1,2.4-0.3,3.9C299,69.6,300.5,69.7,301.2,69z"/>
		<path class="st0" d="M338.1,63.3c0.6-2.4,0.3-4.4-1.2-5.7c-0.7-0.7-1.5-0.6-2.2,0.3c-5.3,5.5-11.3,15-13.2,24
			c-0.1,0.3-0.1,0.5-0.1,0.8c-1.8,3.2-4.3,6.1-6.3,6.2c-1.8,0.1-1.7-2.1-0.4-5.1c1.3-2.8,3.9-6.7,5-9c1.2-2.6,0.8-4.8,0.1-5.8
			c-0.4-0.5-0.8-0.4-1.3,0.3c-0.6,0.8-1.2,1.9-1.9,3.2c0.1-2-0.9-3.8-3.2-3.8c-2.6,0-6.7,2.3-10.9,8.5c-1.1,1.6-1.9,3.2-2.3,4.8
			c-1.6,3.4-4.3,6.6-6.6,6.7c-1.7,0.1-1.8-1.9-0.5-5c1.1-2.6,3.3-6.1,4.4-8.4c1.3-2.6,0.8-4.8,0.1-5.7c-0.4-0.5-0.8-0.3-1.2,0.3
			c-1.9,2.7-5.4,8.9-6.7,12.7l0,0c-2.2,3-5.5,6.2-9.4,6.1c-3.1-0.1-4.2-4.4-1.3-10.3c2.3-4.7,6.3-8.1,7.1-7.3
			c0.7,0.6-0.8,2.8-1.4,4.7c-0.7,2.3,0,3.9,1.3,4.5c0.7,0.4,0.9,0.2,1.1-0.4c1-2.8,3.1-5.6,2-7.8c-0.6-1.2-1.5-2-2.9-2.9
			c-2.6-1.6-7.9,1.3-11.2,7.8c-0.9,1.8-1.4,3.6-1.5,5.2c-2.3,3.2-5.8,6.6-9.7,6.4c-2.8-0.2-4-3.4-2.3-8.2c3.6,3,7.1,1.6,9.7-1.5
			c2.2-2.7,2.6-5.8,1.7-7.1c-0.8-1.1-1.8-1.9-3.1-2.7c-2.6-1.5-7.9,1.2-11.3,7.9c-0.9,1.7-1.4,3.4-1.5,5c-1.7,3.4-4.8,6.8-9.7,7.1
			c2-1.2,3.9-3.7,5.5-7.1c1.9-4.3,3.1-8.9,0.6-11.6c-2.2-2.3-5.3-0.9-7.6,1.1c0.1-0.9-0.1-1.7-0.3-2.3c-0.3-0.6-0.7-0.7-1.2-0.1
			c-3.3,4.4-12,20.9-13.6,26c-1,3.2-0.7,4.6,0.1,5.7c0.3,0.5,0.7,0.4,0.9-0.1c2.5-5.8,5.2-11.1,7.6-15.6c0.2,1.3,0.7,2.5,1.8,3.5
			c1.8,1.7,4,2.1,7.3,1.9c3.6-0.2,7-1.8,9-5.1c0.8,2.9,3.1,4.8,6.8,4.8s7.5-2.1,9.7-5c0.7,3,3.1,5,6.8,5c3.1,0,6.4-1.6,8.5-3.8
			c0.1,2.3,1.4,3.8,4.1,3.8c2.4,0,5-1.5,6.8-3.8c0.4,2.3,1.8,3.8,4.1,3.8c2.5,0,4.8-1.9,6.5-4.1c0,2.4,1.5,4.1,4.3,4.3
			c2.3,0.1,4.9-1.7,6.5-3.9c0.5,2.4,2.1,3.6,4.5,3.7c4.2,0.1,8-4.2,8.7-5.8c0.6-1.3,0.8-2.4,0.5-3.2c-0.2-0.7-0.8-0.7-1.1,0
			c-2,4-5.7,7.8-8.2,7.6c-2.3-0.2-1.8-4.5,0.3-9.6C330.6,76,336.5,69.7,338.1,63.3z M328.2,74.3c3.6-6.7,7.5-12.5,8.1-12
			c0.7,0.4-2.2,8.8-9.4,14.5C327.3,75.9,327.7,75.1,328.2,74.3z M262.3,78.5c2.4-5,6.8-8.1,7.9-7.2c0.7,0.6-0.4,3.3-2.1,5.5
			c-1.5,2-3.6,4.2-6.2,2.6C261.9,79.1,262.1,78.8,262.3,78.5z M241.8,87.6c-1.5-1.2-1.2-4.3,0.1-7.6c0.6-1.1,1.2-2,1.8-3
			c2.4-4,5.7-6.6,6.9-6c1.3,0.6,0.7,5-1.3,9.1C246.9,85.1,243.5,88.9,241.8,87.6z M304.5,88.4c-2-0.1-1.4-4.6,1.4-9.1
			c2.9-4.6,6.7-8,8.3-7.9c1.5,0.2,1,3.4-2.2,9.1C309.4,85.1,306.6,88.5,304.5,88.4z"/>
		<polygon class="st0" points="137.6,51.8 143.1,47.5 148.6,51.8 146.2,45.2 152,41.3 145,41.5 143.1,34.8 141.2,41.5 134.2,41.3 
			140,45.2 		"/>
		<polygon class="st0" points="165.9,27.5 164,20.8 162,27.5 155.1,27.3 160.8,31.2 158.5,37.8 164,33.5 169.5,37.8 167.1,31.2 
			172.9,27.3 		"/>
		<polygon class="st0" points="183.9,32.6 189.4,28.4 194.9,32.6 192.5,26.1 198.3,22.1 191.3,22.4 189.4,15.7 187.4,22.4 
			180.5,22.1 186.2,26.1 		"/>
		<polygon class="st0" points="214.9,33 220.4,37.3 218.1,30.7 223.8,26.8 216.9,27 214.9,20.3 213,27 206,26.8 211.8,30.7 
			209.4,37.3 		"/>
		<polygon class="st0" points="230,49.6 235.5,45.4 241,49.6 238.6,43.1 244.4,39.1 237.4,39.4 235.5,32.7 233.5,39.4 226.5,39.1 
			232.3,43.1 		"/>
	</g>
</g>
<g id="Layer_2_1_">
</g>
</svg>
