<?xml version="1.0" encoding="utf-8"?>
<!-- Generator: Adobe Illustrator 22.0.1, SVG Export Plug-In . SVG Version: 6.00 Build 0)  -->
<svg version="1.1" id="Layer_1" xmlns="http://www.w3.org/2000/svg" xmlns:xlink="http://www.w3.org/1999/xlink" x="0px" y="0px"
	 viewBox="0 0 69 68.9" style="enable-background:new 0 0 69 68.9;" xml:space="preserve">
<style type="text/css">
	.st0{fill:#010101;}
</style>
<g>
	<path class="st0" d="M58.9,10.1c-13.4-13.4-35.3-13.4-48.8,0C3.6,16.6,0,25.3,0,34.6c0,9.2,3.6,17.8,10.1,24.3
		c0.6,0.6,1.5,0.6,2.1,0c0.6-0.6,0.6-1.5,0-2.1C6.2,50.8,3,43,2.9,34.6c0-8.5,3.3-16.4,9.3-22.4c12.3-12.3,32.3-12.3,44.6,0
		c6,6,9.3,13.9,9.3,22.3c0,8.4-3.3,16.3-9.3,22.3C46.8,66.7,31.3,68.9,19,62c-0.7-0.4-1.6-0.1-2,0.6c-0.4,0.7-0.1,1.6,0.6,2
		c5.3,2.9,11,4.4,16.8,4.4c9,0,17.9-3.5,24.5-10.1C72.3,45.4,72.3,23.5,58.9,10.1z"/>
	<path class="st0" d="M51.1,44.9V22.5c0-0.6-0.5-1.1-1.1-1.1H24.4c-0.6,0-1.1,0.5-1.1,1.1V44c0,0.7-0.2,1.4-0.7,1.9H50
		C50.6,46,51.1,45.5,51.1,44.9z M27.1,25.9c0-0.5,0.4-0.9,0.9-0.9h6.7c0.5,0,0.9,0.4,0.9,0.9v5.2c0,0.5-0.4,0.9-0.9,0.9H28
		c-0.5,0-0.9-0.4-0.9-0.9V25.9z M46.3,42.4H28c-0.5,0-0.9-0.4-0.9-0.9s0.4-0.9,0.9-0.9h18.2c0.5,0,0.9,0.4,0.9,0.9
		S46.7,42.4,46.3,42.4z M46.3,37.2H28c-0.5,0-0.9-0.4-0.9-0.9c0-0.5,0.4-0.9,0.9-0.9h18.2c0.5,0,0.9,0.4,0.9,0.9
		C47.2,36.8,46.7,37.2,46.3,37.2z M46.3,32h-6.9c-0.5,0-0.9-0.4-0.9-0.9c0-0.5,0.4-0.9,0.9-0.9h6.9c0.5,0,0.9,0.4,0.9,0.9
		C47.2,31.6,46.7,32,46.3,32z M46.3,26.8h-6.9c-0.5,0-0.9-0.4-0.9-0.9c0-0.5,0.4-0.9,0.9-0.9h6.9c0.5,0,0.9,0.4,0.9,0.9
		C47.2,26.4,46.7,26.8,46.3,26.8z"/>
	<path class="st0" d="M22.1,44.1v-17h-3c-0.6,0-1.1,0.5-1.1,1.1v15.9c0,1.1,0.9,1.9,1.9,1.9h0.2C21.2,46,22.1,45.2,22.1,44.1z"/>
</g>
</svg>
