<?xml version="1.0" encoding="utf-8"?>
<!-- Generator: Adobe Illustrator 22.0.1, SVG Export Plug-In . SVG Version: 6.00 Build 0)  -->
<svg version="1.1" id="Layer_1" xmlns="http://www.w3.org/2000/svg" xmlns:xlink="http://www.w3.org/1999/xlink" x="0px" y="0px"
	 viewBox="0 0 69 68.9" style="enable-background:new 0 0 69 68.9;" xml:space="preserve">
<style type="text/css">
	.st0{fill:#010101;}
</style>
<g>
	<path class="st0" d="M58.9,10.1c-13.4-13.4-35.3-13.4-48.8,0C3.6,16.6,0,25.3,0,34.6c0,9.2,3.6,17.8,10.1,24.3
		c0.6,0.6,1.5,0.6,2.1,0c0.6-0.6,0.6-1.5,0-2.1C6.2,50.8,3,43,2.9,34.6c0-8.5,3.3-16.4,9.3-22.4c12.3-12.3,32.3-12.3,44.6,0
		c6,6,9.3,13.9,9.3,22.3c0,8.4-3.3,16.3-9.3,22.3C46.8,66.7,31.3,68.9,19,62c-0.7-0.4-1.6-0.1-2,0.6c-0.4,0.7-0.1,1.6,0.6,2
		c5.3,2.9,11,4.4,16.8,4.4c9,0,17.9-3.5,24.5-10.1C72.3,45.4,72.3,23.5,58.9,10.1z"/>
	<path class="st0" d="M27,34l-9.4,2.8v11.7h34V36.7L42.2,34c-0.2,0.3-0.4,0.5-0.6,0.8c-1.9,2.1-4.4,3.3-7,3.3
		c-2.7,0-5.3-1.3-7.1-3.5C27.2,34.3,27.1,34.1,27,34z"/>
	<path class="st0" d="M34.6,36c2,0,3.9-0.9,5.5-2.6c1.4-1.6,1.6-3.9,1.6-7.2c0-3.3-0.3-5.6-1.6-7.2c-1.5-1.6-3.5-2.6-5.5-2.6
		c-2.1,0-4.1,1-5.6,2.7c-1.4,1.6-1.6,4.3-1.6,7c0,2.7,0.1,5.3,1.6,7S32.5,36,34.6,36z"/>
</g>
</svg>
