<svg xmlns="http://www.w3.org/2000/svg" xmlns:xlink="http://www.w3.org/1999/xlink" width="17" height="17" viewBox="0 0 17 17"><defs><path id="673ia" d="M674.2 551l2.66-2.89a.6.6 0 0 0 0-.77l-1.9-1.93a.57.57 0 0 0-.77 0l-.95.77s-.5.85-3.73-2.43l-.38-.39c-3.24-3.28-2.55-3.55-2.55-3.55l.76-1.35a.6.6 0 0 0 0-.77l-1.53-1.54a.57.57 0 0 0-.76 0l-3.05 2.7s3.81 7.37 12.2 12.15z"/></defs><g><g transform="translate(-661 -535)"><use fill="#fff" fill-opacity="0" stroke="#1a1a1a" stroke-miterlimit="50" stroke-opacity=".5" xlink:href="#673ia"/></g></g></svg>