<?xml version="1.0" encoding="utf-8"?>
<!-- Generator: Adobe Illustrator 22.0.1, SVG Export Plug-In . SVG Version: 6.00 Build 0)  -->
<svg version="1.1" id="Layer_1" xmlns="http://www.w3.org/2000/svg" xmlns:xlink="http://www.w3.org/1999/xlink" x="0px" y="0px"
	 viewBox="0 0 70.6 70.5" style="enable-background:new 0 0 70.6 70.5;" xml:space="preserve">
<style type="text/css">
	.st0{display:none;}
	.st1{display:inline;}
	.st2{fill:#FFFFFF;}
</style>
<g id="Background" class="st0">
	<rect x="-0.7" y="-0.7" class="st1" width="72" height="71.9"/>
</g>
<g>
	<g id="Layer_1_1_">
		<g>
			<path class="st2" d="M33.7,71c-5.8,0-11.6-1.4-16.8-4.4c-0.7-0.4-1-1.3-0.6-2c0.4-0.7,1.3-1,2-0.6c12.3,6.9,27.8,4.7,37.8-5.2
				c6-6,9.3-13.9,9.3-22.3s-3.3-16.3-9.3-22.3c-12.3-12.3-32.3-12.3-44.6,0c-6,6-9.3,13.9-9.3,22.4c0,8.4,3.3,16.3,9.3,22.2
				c0.6,0.6,0.6,1.5,0,2.1c-0.6,0.6-1.5,0.6-2.1,0C3,54.4-0.6,45.8-0.6,36.6c0-9.2,3.6-17.9,10.1-24.5c13.4-13.4,35.3-13.4,48.8,0
				s13.4,35.3,0,48.8C51.6,67.5,42.7,71,33.7,71z"/>
		</g>
	</g>
	<g>
		<path class="st2" d="M28.1,52.2c-0.1,0-0.3,0-0.4-0.1c-0.3-0.2-0.5-0.5-0.5-0.9V20.5c0-0.4,0.2-0.7,0.5-0.9c0.3-0.2,0.7-0.1,1,0.1
			l18.4,15.3c0.2,0.2,0.3,0.4,0.3,0.7s-0.1,0.6-0.3,0.7L28.8,51.9C28.6,52.1,28.4,52.2,28.1,52.2z"/>
	</g>
</g>
</svg>
