<?xml version="1.0" encoding="utf-8"?>
<!-- Generator: Adobe Illustrator 22.0.1, SVG Export Plug-In . SVG Version: 6.00 Build 0)  -->
<svg version="1.1" xmlns="http://www.w3.org/2000/svg" xmlns:xlink="http://www.w3.org/1999/xlink" x="0px" y="0px"
	 viewBox="0 0 72 72" style="enable-background:new 0 0 72 72;" xml:space="preserve">
<style type="text/css">
	.st0{display:none;}
	.st1{display:inline;}
	.st2{fill:#FFFFFF;}
</style>
<g id="Background" class="st0">
	<rect x="0" y="-0.1" class="st1" width="72" height="71.9"/>
</g>
<g id="Layer_1">
	<g>
		<path class="st2" d="M60.9,11C54.2,4.3,45.4,0.6,36,0.6c-9.4,0-18.3,3.7-24.9,10.3C4.4,17.6,0.7,26.5,0.7,35.9
			c0,9.4,3.7,18.3,10.3,24.9c0.6,0.6,1.5,0.6,2.1,0s0.6-1.5,0-2.1c-6.1-6.1-9.4-14.2-9.4-22.8s3.4-16.7,9.4-22.8S27.4,3.6,36,3.6
			S52.7,7,58.8,13.1s9.4,14.2,9.4,22.8s-3.4,16.7-9.4,22.8C48.6,68.9,32.7,71.1,20.2,64c-0.7-0.4-1.6-0.2-2,0.6
			c-0.4,0.7-0.2,1.6,0.6,2c5.4,3,11.3,4.5,17.2,4.5c9.1,0,18.2-3.5,25-10.3c6.7-6.7,10.3-15.5,10.3-24.9
			C71.2,26.5,67.6,17.6,60.9,11z"/>
		<path class="st2" d="M27.4,36.3l-10.3,3.1v12.8h37.2V39.3L44,36.3c-0.2,0.3-0.4,0.6-0.7,0.9c-2.1,2.3-4.8,3.6-7.6,3.6
			c-3,0-5.8-1.4-7.8-3.8C27.6,36.7,27.5,36.5,27.4,36.3z"/>
		<path class="st2" d="M35.7,38.5c2.2,0,4.3-1,6-2.8c1.5-1.7,1.8-4.3,1.8-7.9c0-3.6-0.3-6.1-1.8-7.9c-1.6-1.8-3.8-2.8-6-2.8
			c-2.3,0-4.5,1.1-6.1,3c-1.5,1.8-1.7,4.7-1.7,7.7s0.1,5.8,1.7,7.7C31.2,37.4,33.4,38.5,35.7,38.5z"/>
	</g>
</g>
<g id="Layer_3">
</g>
</svg>
