<?xml version="1.0" encoding="utf-8"?>
<!-- Generator: Adobe Illustrator 22.0.1, SVG Export Plug-In . SVG Version: 6.00 Build 0)  -->
<svg version="1.1" id="Layer_1" xmlns="http://www.w3.org/2000/svg" xmlns:xlink="http://www.w3.org/1999/xlink" x="0px" y="0px"
	 viewBox="0 0 69 68.9" style="enable-background:new 0 0 69 68.9;" xml:space="preserve">
<style type="text/css">
	.st0{fill:#FFFFFF;}
</style>
<g>
	<path class="st0" d="M58.9,10.1c-13.4-13.4-35.3-13.4-48.8,0C3.6,16.6,0,25.3,0,34.6c0,9.2,3.6,17.8,10.1,24.3
		c0.6,0.6,1.5,0.6,2.1,0s0.6-1.5,0-2.1c-6-6-9.2-13.8-9.3-22.2c0-8.5,3.3-16.4,9.3-22.4c12.3-12.3,32.3-12.3,44.6,0
		c6,6,9.3,13.9,9.3,22.3s-3.3,16.3-9.3,22.3C46.8,66.7,31.3,68.9,19,62c-0.7-0.4-1.6-0.1-2,0.6c-0.4,0.7-0.1,1.6,0.6,2
		c5.3,2.9,11,4.4,16.8,4.4c9,0,17.9-3.5,24.5-10.1C72.3,45.4,72.3,23.5,58.9,10.1z"/>
	<path class="st0" d="M25.6,20.7c-1.8-1.1-3.5-2.1-5.3-3.2c-0.1-0.1-0.2-0.1-0.3-0.1c0,0,0,0-0.1,0h-0.1l0,0c-0.1,0-0.1,0-0.2,0
		h-0.1c-0.1,0.1-0.2,0.1-0.3,0.2c-0.7,0.7-0.7,0.6-1.3,1.3c-0.4,0.4-0.4,0.6-0.1,1c1,1.7,2.1,3.5,3.1,5.2c0.1,0.1,0.1,0.2,0.2,0.2
		c0,0,0,0,0.1,0l0.1,0.1h0.1c0,0,0.1,0,0.1,0.1h0.1h0.1l0,0c0.1,0,0.2,0,0.3,0c0.5,0,0.9,0,1.4,0.1c0.5,0,1,0.1,1.5,0.1l6.9,7.2
		c0.1,0.4,0.3,1,0.6,1.7c0.5,1.5,1.1,3.4,1.3,4c0.1,0.3,0.2,0.5,0.4,0.7c3.5,3.5,6.9,6.9,10.4,10.4c0.9,1,1.9,2,3.3,2
		c2,0,3.7-1.7,3.7-3.7v-0.1c0.1-1.3-0.7-2.2-1.3-2.8c-3.3-3.2-6.5-6.5-9.8-9.8l-0.9-0.9C39.3,34.2,39,34,38.8,34
		c-0.9-0.3-1.7-0.6-2.6-0.9c-1.1-0.4-2.2-0.7-3.3-1.1c-0.2-0.1-0.4-0.2-0.6-0.3c-1.7-1.7-4.6-4.6-6.6-6.7c0.1-1,0.4-3.1,0.4-3.6
		C26,21.1,25.9,20.9,25.6,20.7z"/>
	<path class="st0" d="M30.9,33.5L30.9,33.5l-2,1.9c-3.2,3.2-6.4,6.4-9.6,9.6c-0.2,0.2-0.3,0.4-0.5,0.5c-0.4,0.5-0.6,1.2-0.6,1.9
		c0,1.7,1.4,3.1,3.1,3.2h0.1l0,0l0,0c0.5,0,0.9-0.1,1.3-0.3c0.1-0.1,0.3-0.1,0.4-0.2l0,0c0.3-0.2,0.5-0.4,0.8-0.6
		c2.5-2.5,5-5,7.5-7.5l1.8-1.9c-0.3-0.3-0.5-0.6-0.6-1c-0.2-0.7-0.8-2.5-1.3-4.1C31.2,34.4,31,33.9,30.9,33.5z"/>
	<path class="st0" d="M34.3,30l-1.1,1.1c1.1,0.4,2.2,0.7,3.3,1.1l0.4,0.1c0.7,0.2,1.5,0.5,2.2,0.7c0.2,0.1,0.4,0.2,0.6,0.3l1.9-2
		c1.2,0.5,2.5,0.7,3.7,0.4c4.4-0.7,7.1-5.4,5.5-9.6c-0.2-0.6-0.6-0.7-1-0.2c-1.1,1.1-2.2,2.2-3.3,3.3c-0.9,0.9-2.2,0.9-3.1,0.1
		c-0.9-0.9-0.9-2.2,0-3.1c1.1-1.1,2.2-2.2,3.3-3.3c0.4-0.4,0.4-0.9-0.2-1c-0.7-0.2-1.5-0.4-2.2-0.4c-4.6-0.2-8.7,4.1-7.1,9.1
		c0.1,0.2,0,0.4-0.1,0.5C36.5,27.6,34.8,29.5,34.3,30z"/>
</g>
</svg>
