<?xml version="1.0" encoding="utf-8"?>
<!-- Generator: Adobe Illustrator 22.0.1, SVG Export Plug-In . SVG Version: 6.00 Build 0)  -->
<svg version="1.1" id="Layer_1" xmlns="http://www.w3.org/2000/svg" xmlns:xlink="http://www.w3.org/1999/xlink" x="0px" y="0px"
	 viewBox="0 0 69 68.9" style="enable-background:new 0 0 69 68.9;" xml:space="preserve">
<style type="text/css">
	.st0{display:none;}
</style>
<g id="Background" class="st0">
</g>
<g>
	<path d="M58.9,10.1c-13.4-13.4-35.3-13.4-48.8,0C3.6,16.6,0,25.3,0,34.6c0,9.2,3.6,17.8,10.1,24.3c0.6,0.6,1.5,0.6,2.1,0
		c0.6-0.6,0.6-1.5,0-2.1C6.2,50.8,3,43,2.9,34.6c0-8.5,3.3-16.4,9.3-22.4c12.3-12.3,32.3-12.3,44.6,0c6,6,9.3,13.9,9.3,22.3
		c0,8.4-3.3,16.3-9.3,22.3C46.8,66.7,31.3,68.9,19,62c-0.7-0.4-1.6-0.1-2,0.6c-0.4,0.7-0.1,1.6,0.6,2c5.3,2.9,11,4.4,16.8,4.4
		c9,0,17.9-3.5,24.5-10.1C72.3,45.4,72.3,23.5,58.9,10.1z"/>
	<path d="M19.3,44.6h-0.8v4.8h28.3v-5.2H30c1-0.8,1.7-2.1,1.7-4.1v-3.6h11.7v-5H31.6v-3.3c0-3.6,1.5-5.9,6.2-5.9
		c2.5,0,4.8,0.6,6.4,1v-5.4c-1.9-0.6-5-1.1-7.1-1.1c-9.3,0-12.3,5-12.3,11.1v3.5h-4.9v5h4.9v2.7C24.7,43.5,22.5,44.6,19.3,44.6z"/>
</g>
</svg>
