<?xml version="1.0" encoding="utf-8"?>
<!-- Generator: Adobe Illustrator 22.0.1, SVG Export Plug-In . SVG Version: 6.00 Build 0)  -->
<svg version="1.1" id="Layer_1" xmlns="http://www.w3.org/2000/svg" xmlns:xlink="http://www.w3.org/1999/xlink" x="0px" y="0px"
	 viewBox="0 0 214.9 85.3" style="enable-background:new 0 0 214.9 85.3;" xml:space="preserve">
<style type="text/css">
	.st0{fill:#002E58;}
</style>
<g>
	<path class="st0" d="M86.5,18.3h-7.4v24c0,8.2-4.2,12.9-11.1,12.9c-7.3,0-10-5.6-10-12V18.3h-7.4V46c0,11.6,8.2,16.2,16.6,16.2
		c4.8,0,9.6-2.1,11.8-6h0.2v5l0,0c0,8.9-7.2,14.6-15.3,14.6c-2.6,0-5-0.6-7.2-1.7v7.6c2.2,0.7,4.3,1,6.8,1c13.7,0,23.1-9,23.1-22.8
		l0,0V18.3H86.5z"/>
	<path class="st0" d="M138.9,36.1c0-6.4-2.6-12-10-12c-6.9,0-11.1,5.4-11.1,13.6v23.4h-7.4V18.2h7.4v5h0.2c2.2-3.9,7-6,11.8-6
		c8.3,0,16.6,4.5,16.6,16.1v27.8H139v-25H138.9z"/>
	<path class="st0" d="M208.3,17.2c-4.8,0-9.6,3.3-11.8,7.1h-0.2v-6.2h-7.4V61h7.4V41.8c0-7.8,2.6-20.1,17-16.8v-7.3
		C211.7,17.4,210,17.2,208.3,17.2"/>
	<path class="st0" d="M107.3,54.1c-7,0-7.1-5.7-7.1-7.2v-7.2v-15h8.5v-6.5h-8.5V7.8h-7.4v10.4H88v6.5h4.8v22.2
		c0,6.5,2.7,14.2,14.5,14.2V54.1z"/>
	<path class="st0" d="M38.7,18.3C37.8,9.7,32.1,7,23.9,7c-6.7,0-13.4,2.4-13.4,10.2c0,7.4,9.6,8.5,19.2,10.7s19.1,5.5,19.1,17.3
		c0,12.8-12.5,17.9-23.4,17.9C12,63.1,0.7,56.6,0.7,42h7.5c0,10.1,8.4,14.4,17.4,14.4c7.2,0,15.2-2.3,15.2-10.9
		c0-8.2-9.6-9.6-19.1-11.7c-9.6-2.1-19.2-4.9-19.2-15.9C2.5,5.7,13.3,0.4,24.2,0.4c12.2,0,21.6,4.8,22.1,18h-7.6V18.3z"/>
	<path class="st0" d="M167.8,17c-11.8,0-20.4,9.6-20.4,22.6c0.4,13.2,7,22.8,20.8,22.8c9.3,0,16-4.8,18.3-13.6h-7.1
		c-1.5,4.9-5.5,7.4-10.9,7.4c-9.5,0-13.8-6.7-13.5-14.3h32.5C187.9,31.3,183.2,17,167.8,17 M155,35.5c0.5-6.6,4.9-12.2,12.4-12.2
		c7,0,12.2,5.5,12.5,12.2H155z"/>
</g>
</svg>
