<?xml version="1.0" encoding="utf-8"?>
<!-- Generator: Adobe Illustrator 22.0.1, SVG Export Plug-In . SVG Version: 6.00 Build 0)  -->
<svg version="1.1" id="Layer_1" xmlns="http://www.w3.org/2000/svg" xmlns:xlink="http://www.w3.org/1999/xlink" x="0px" y="0px"
	 viewBox="0 0 36.8 36.8" style="enable-background:new 0 0 36.8 36.8;" xml:space="preserve">
<style type="text/css">
	.st0{fill:#FFFFFF;}
</style>
<g>
	<path class="st0" d="M9.5,24.6c1.7,1.1,3.8,1.8,6,1.8c7.2,0,11.1-5.9,11.1-11.1c0-0.2,0-0.3,0-0.5c0.6-0.3,1.3-1,1.8-1.8
		c-0.7,0.3-1.5,0.5-2.2,0.6c0.8-0.5,1.4-1.2,1.7-2.2c-0.8,0.4-1.6,0.8-2.5,0.9c-0.7-0.8-1.7-1.2-2.8-1.2c-2.2,0-3.9,1.7-3.9,3.9
		c0,0.3,0,0.6,0.1,0.9c-3.2-0.2-6.1-1.7-8-4.1c-0.3,0.6-0.5,1.2-0.5,2c0,1.4,0.7,2.5,1.7,3.2c-0.6,0-1.2-0.2-1.8-0.5
		c0,1.9,1.3,3.5,3.1,3.8c-0.3,0.1-0.7,0.1-1,0.1c-0.3,0-0.5,0-0.7-0.1c0.5,1.5,1.9,2.7,3.6,2.7c-1.3,1-3,1.7-4.8,1.7
		C10.1,24.7,9.8,24.7,9.5,24.6z"/>
	<path class="st0" d="M31.4,5.4c-7.2-7.2-18.9-7.2-26,0C1.9,8.9,0,13.5,0,18.5c0,4.9,1.9,9.5,5.4,13c0.3,0.3,0.8,0.3,1.1,0
		c0.3-0.3,0.3-0.8,0-1.1c-3.2-3.2-4.9-7.4-4.9-11.9c0-4.5,1.7-8.8,4.9-12c6.6-6.6,17.2-6.6,23.8,0c3.2,3.2,4.9,7.4,4.9,11.9
		c0,4.5-1.8,8.7-4.9,11.9c-5.3,5.3-13.6,6.5-20.2,2.8c-0.4-0.2-0.9-0.1-1.1,0.3c-0.2,0.4-0.1,0.9,0.3,1.1c2.8,1.6,5.9,2.3,9,2.3
		c4.8,0,9.5-1.8,13.1-5.4C38.6,24.2,38.6,12.6,31.4,5.4z"/>
</g>
</svg>
