<?xml version="1.0" encoding="utf-8"?>
<!-- Generator: Adobe Illustrator 22.0.1, SVG Export Plug-In . SVG Version: 6.00 Build 0)  -->
<svg version="1.1" id="Layer_1" xmlns="http://www.w3.org/2000/svg" xmlns:xlink="http://www.w3.org/1999/xlink" x="0px" y="0px"
	 viewBox="0 0 36.8 36.8" style="enable-background:new 0 0 36.8 36.8;" xml:space="preserve">
<style type="text/css">
	.st0{fill:#FFFFFF;}
</style>
<g>
	<path class="st0" d="M12.6,24.4c1.4,0.1,6,0.2,6,0.2s3.8,0,6.2-0.2c0.4,0,1.1,0,1.8-0.8c0.5-0.5,0.7-1.8,0.7-1.8s0.2-1.5,0.2-2.9
		v-1.4c0-1.5-0.2-2.9-0.2-2.9s-0.2-1.2-0.7-1.8c-0.7-0.7-1.5-0.7-1.8-0.8C22.4,12,18.7,12,18.7,12s-3.8,0-6.2,0.2
		c-0.4,0-1.1,0-1.8,0.8c-0.5,0.5-0.7,1.8-0.7,1.8s-0.2,1.5-0.2,2.9V19c0,1.5,0.2,2.9,0.2,2.9s0.2,1.2,0.7,1.8
		C11.4,24.3,12.2,24.3,12.6,24.4z M16.8,15.6l4.8,2.6l-4.8,2.5V15.6z"/>
	<path class="st0" d="M31.4,5.4c-7.2-7.2-18.9-7.2-26,0C1.9,8.9,0,13.5,0,18.5c0,4.9,1.9,9.5,5.4,13c0.3,0.3,0.8,0.3,1.1,0
		c0.3-0.3,0.3-0.8,0-1.1c-3.2-3.2-4.9-7.4-4.9-11.9c0-4.5,1.7-8.8,4.9-12c6.6-6.6,17.2-6.6,23.8,0c3.2,3.2,4.9,7.4,4.9,11.9
		s-1.8,8.7-4.9,11.9c-5.3,5.3-13.6,6.5-20.2,2.8c-0.4-0.2-0.9-0.1-1.1,0.3c-0.2,0.4-0.1,0.9,0.3,1.1c2.8,1.6,5.9,2.3,9,2.3
		c4.8,0,9.5-1.8,13.1-5.4C38.6,24.2,38.6,12.6,31.4,5.4z"/>
</g>
</svg>
